<?xml version="1.0" encoding="UTF-8"?>
<svg xmlns="http://www.w3.org/2000/svg" xmlns:xlink="http://www.w3.org/1999/xlink" width="8pt" height="8pt" viewBox="0 0 8 8" version="1.1">
<g id="surface1">
<path style=" stroke:none;fill-rule:nonzero;fill:rgb(100%,100%,100%);fill-opacity:1;" d="M 2.546875 4.417969 L 1.859375 4.417969 C 1.746094 4.417969 1.652344 4.339844 1.652344 4.234375 L 1.652344 3.621094 C 1.652344 3.519531 1.746094 3.4375 1.859375 3.4375 L 2.546875 3.4375 C 2.664062 3.4375 2.757812 3.519531 2.757812 3.621094 L 2.757812 4.234375 C 2.757812 4.339844 2.664062 4.417969 2.546875 4.417969 Z M 4.410156 4.234375 L 4.410156 3.621094 C 4.410156 3.519531 4.316406 3.4375 4.203125 3.4375 L 3.511719 3.4375 C 3.402344 3.4375 3.304688 3.519531 3.304688 3.621094 L 3.304688 4.234375 C 3.304688 4.339844 3.402344 4.417969 3.511719 4.417969 L 4.203125 4.417969 C 4.316406 4.417969 4.410156 4.339844 4.410156 4.234375 Z M 6.0625 4.234375 L 6.0625 3.621094 C 6.0625 3.519531 5.972656 3.4375 5.855469 3.4375 L 5.167969 3.4375 C 5.054688 3.4375 4.960938 3.519531 4.960938 3.621094 L 4.960938 4.234375 C 4.960938 4.339844 5.054688 4.417969 5.167969 4.417969 L 5.855469 4.417969 C 5.972656 4.417969 6.0625 4.339844 6.0625 4.234375 Z M 4.410156 5.707031 L 4.410156 5.09375 C 4.410156 4.992188 4.316406 4.910156 4.203125 4.910156 L 3.511719 4.910156 C 3.402344 4.910156 3.304688 4.992188 3.304688 5.09375 L 3.304688 5.707031 C 3.304688 5.8125 3.402344 5.894531 3.511719 5.894531 L 4.203125 5.894531 C 4.316406 5.894531 4.410156 5.8125 4.410156 5.707031 Z M 2.757812 5.707031 L 2.757812 5.09375 C 2.757812 4.992188 2.664062 4.910156 2.546875 4.910156 L 1.859375 4.910156 C 1.746094 4.910156 1.652344 4.992188 1.652344 5.09375 L 1.652344 5.707031 C 1.652344 5.8125 1.746094 5.894531 1.859375 5.894531 L 2.546875 5.894531 C 2.664062 5.894531 2.757812 5.8125 2.757812 5.707031 Z M 6.0625 5.707031 L 6.0625 5.09375 C 6.0625 4.992188 5.972656 4.910156 5.855469 4.910156 L 5.167969 4.910156 C 5.054688 4.910156 4.960938 4.992188 4.960938 5.09375 L 4.960938 5.707031 C 4.960938 5.8125 5.054688 5.894531 5.167969 5.894531 L 5.855469 5.894531 C 5.972656 5.894531 6.0625 5.8125 6.0625 5.707031 Z M 7.71875 1.71875 L 7.71875 7.121094 C 7.71875 7.527344 7.347656 7.855469 6.890625 7.855469 L 0.828125 7.855469 C 0.371094 7.855469 0 7.527344 0 7.121094 L 0 1.71875 C 0 1.3125 0.371094 0.980469 0.828125 0.980469 L 1.652344 0.980469 L 1.652344 0.183594 C 1.652344 0.0820312 1.746094 0 1.859375 0 L 2.546875 0 C 2.664062 0 2.757812 0.0820312 2.757812 0.183594 L 2.757812 0.980469 L 4.960938 0.980469 L 4.960938 0.183594 C 4.960938 0.0820312 5.054688 0 5.167969 0 L 5.855469 0 C 5.972656 0 6.0625 0.0820312 6.0625 0.183594 L 6.0625 0.980469 L 6.890625 0.980469 C 7.347656 0.980469 7.71875 1.3125 7.71875 1.71875 Z M 6.890625 7.027344 L 6.890625 2.457031 L 0.828125 2.457031 L 0.828125 7.027344 C 0.828125 7.078125 0.875 7.121094 0.929688 7.121094 L 6.789062 7.121094 C 6.839844 7.121094 6.890625 7.078125 6.890625 7.027344 Z M 6.890625 7.027344 "/>
</g>
</svg>
