<?xml version="1.0" encoding="UTF-8"?>
<svg xmlns="http://www.w3.org/2000/svg" xmlns:xlink="http://www.w3.org/1999/xlink" width="8pt" height="9pt" viewBox="0 0 8 9" version="1.1">
<g id="surface1">
<path style=" stroke:none;fill-rule:nonzero;fill:#516278;fill-opacity:1;" d="M 3.402344 1.175781 L 3.796875 0.785156 C 3.964844 0.621094 4.238281 0.621094 4.402344 0.785156 L 7.875 4.203125 C 8.042969 4.367188 8.042969 4.632812 7.875 4.796875 L 4.402344 8.214844 C 4.234375 8.378906 3.964844 8.378906 3.796875 8.214844 L 3.402344 7.824219 C 3.230469 7.65625 3.234375 7.382812 3.410156 7.222656 L 5.5625 5.203125 L 0.429688 5.203125 C 0.191406 5.203125 0 5.015625 0 4.78125 L 0 4.21875 C 0 3.984375 0.191406 3.796875 0.429688 3.796875 L 5.5625 3.796875 L 3.410156 1.777344 C 3.234375 1.617188 3.230469 1.34375 3.402344 1.175781 Z M 3.402344 1.175781 "/>
</g>
</svg>
