<?xml version="1.0" encoding="UTF-8"?>
<svg xmlns="http://www.w3.org/2000/svg" xmlns:xlink="http://www.w3.org/1999/xlink" width="8pt" height="9pt" viewBox="0 0 8 9" version="1.1">
<g id="surface1">
<path style=" stroke:none;fill-rule:nonzero;fill:rgb(100%,100%,100%);fill-opacity:1;" d="M 5.402344 5.425781 C 4.90625 5.425781 4.671875 5.710938 3.859375 5.710938 C 3.046875 5.710938 2.8125 5.425781 2.316406 5.425781 C 1.035156 5.425781 0 6.5 0 7.824219 L 0 8.285156 C 0 8.757812 0.371094 9.140625 0.828125 9.140625 L 6.890625 9.140625 C 7.347656 9.140625 7.71875 8.757812 7.71875 8.285156 L 7.71875 7.824219 C 7.71875 6.5 6.679688 5.425781 5.402344 5.425781 Z M 6.890625 8.285156 L 0.828125 8.285156 L 0.828125 7.824219 C 0.828125 6.976562 1.496094 6.285156 2.316406 6.285156 C 2.566406 6.285156 2.976562 6.570312 3.859375 6.570312 C 4.75 6.570312 5.148438 6.285156 5.402344 6.285156 C 6.21875 6.285156 6.890625 6.976562 6.890625 7.824219 Z M 3.859375 5.140625 C 5.230469 5.140625 6.339844 3.992188 6.339844 2.570312 C 6.339844 1.152344 5.230469 0 3.859375 0 C 2.488281 0 1.378906 1.152344 1.378906 2.570312 C 1.378906 3.992188 2.488281 5.140625 3.859375 5.140625 Z M 3.859375 0.855469 C 4.769531 0.855469 5.511719 1.628906 5.511719 2.570312 C 5.511719 3.511719 4.769531 4.285156 3.859375 4.285156 C 2.945312 4.285156 2.207031 3.511719 2.207031 2.570312 C 2.207031 1.628906 2.945312 0.855469 3.859375 0.855469 Z M 3.859375 0.855469 "/>
</g>
</svg>
